<svg width="27" height="27" viewBox="0 0 27 27" fill="none" xmlns="http://www.w3.org/2000/svg">
<path d="M4.44632 11.5292C5.28092 10.8711 6.25163 10.5277 7.23503 10.5277C8.21842 10.5277 9.18913 10.8711 10.0237 11.5292C10.0683 11.5772 10.1209 11.6203 10.1814 11.6557C10.2823 11.7149 10.3999 11.749 10.5239 11.749C10.6479 11.749 10.7655 11.7149 10.8665 11.6557C10.927 11.6203 10.9796 11.5772 11.0241 11.5292C11.8587 10.8711 12.8294 10.5277 13.8128 10.5277C14.7962 10.5277 15.7669 10.8711 16.6015 11.5292C16.6461 11.5772 16.6987 11.6203 16.7592 11.6557C16.8601 11.7149 16.9778 11.749 17.1017 11.749C17.2257 11.749 17.3433 11.7149 17.4443 11.6557L4.44632 11.5292ZM4.44632 11.5292C4.40175 11.5772 4.34917 11.6203 4.28869 11.6557C4.18773 11.7149 4.07012 11.749 3.94612 11.749C3.82212 11.749 3.70451 11.7149 3.60355 11.6557C3.50332 11.597 3.42477 11.5171 3.36842 11.4293L3.24327 11.2345L3.29141 11.0079L4.60573 4.82358C4.79101 3.85809 5.55226 3.14992 6.54263 3.14992H21.1492C21.6081 3.14531 22.0406 3.32605 22.3766 3.63814C22.7102 3.94796 22.9308 4.36867 23.0197 4.82249L24.3343 11.0079L24.4186 11.4047L24.0689 11.6104L23.7834 11.125C24.0689 11.6104 24.0688 11.6105 24.0686 11.6106L24.0683 11.6108L24.0676 11.6112L24.0663 11.6119L24.0634 11.6136L24.0567 11.6174L24.04 11.6265C24.0275 11.6331 24.0116 11.6411 23.9928 11.6495C23.9574 11.6656 23.9022 11.6878 23.8345 11.7037C23.7373 11.7266 23.4368 11.7732 23.1966 11.5429C22.3582 10.8759 21.3808 10.5277 20.3906 10.5277C19.4073 10.5277 18.4365 10.8711 17.6019 11.5292C17.5574 11.5772 17.5048 11.6203 17.4443 11.6557L4.44632 11.5292ZM24.5464 4.22873L24.5478 4.23587L24.5493 4.24297L26.0034 10.759L26.0042 10.7627C26.1103 11.2231 26.0898 11.7117 25.9471 12.1553C25.8044 12.599 25.5512 12.9626 25.2386 13.2048L25.2245 13.2158L25.2111 13.2276L24.9551 13.4535C24.6853 13.6453 24.3919 13.7716 24.0912 13.8302L23.6357 13.919V14.383L23.6357 23.2596C23.6357 23.2598 23.6357 23.2601 23.6357 23.2603C23.6337 24.0013 23.3818 24.6965 22.9562 25.1972C22.533 25.6949 21.981 25.9536 21.4283 25.9559H18.7991C18.2464 25.9536 17.6944 25.6949 17.2712 25.1972C16.8456 24.6965 16.5937 24.0013 16.5917 23.2603V20.003V19.4399H16.0285H12.2203H11.6572V20.003V23.2603C11.6551 24.0013 11.4032 24.6965 10.9776 25.1972C10.5545 25.6949 10.0024 25.9536 9.44974 25.9559H6.1974C5.64469 25.9536 5.09267 25.6949 4.66951 25.1972C4.24388 24.6965 3.992 24.0012 3.98997 23.2602V14.383V13.9195L3.53517 13.8304C3.29597 13.7835 3.09874 13.6649 2.77584 13.4709C2.71595 13.4349 2.65173 13.3963 2.58212 13.3551L2.34535 13.1462L2.33313 13.1354L2.3203 13.1254C1.66734 12.6133 1.32455 11.7001 1.55066 10.7692L1.55076 10.7692L1.55305 10.759L3.00648 4.24571C3.2287 3.29565 3.70636 2.47303 4.35006 1.89551C4.99243 1.31917 5.76324 1.01853 6.54263 1.01823C6.54269 1.01823 6.54275 1.01823 6.54281 1.01823L21.083 1.01823C22.7016 1.01823 24.1723 2.32183 24.5464 4.22873ZM21.5677 23.8242H22.1309V23.261V13.487V13.1324L21.811 12.9791C21.2786 12.7241 20.6955 12.6247 20.1156 12.6947C19.5361 12.7646 18.988 13.0001 18.5184 13.3708L18.5184 13.3708L18.5116 13.3763C18.1174 13.6976 17.6616 13.8607 17.2056 13.8607C16.7496 13.8607 16.2938 13.6976 15.8996 13.3763C15.3175 12.9019 14.6138 12.6386 13.8821 12.6386C13.1504 12.6386 12.4466 12.9019 11.8645 13.3763C11.4703 13.6976 11.0146 13.8607 10.5586 13.8607C10.1025 13.8607 9.64679 13.6976 9.25258 13.3763L9.23458 13.3616L9.21542 13.3485C8.25469 12.6892 7.07717 12.4704 5.96429 12.974L5.63327 13.1237V13.487V23.261V23.8242H6.19643H9.45071H10.0139V23.261V20.0037C10.0159 19.2627 10.2678 18.5675 10.6934 18.0669C11.1166 17.5691 11.6686 17.3104 12.2213 17.3082H16.0275C16.5803 17.3104 17.1323 17.5691 17.5554 18.0669C17.981 18.5675 18.2329 19.2627 18.235 20.0037C18.235 20.004 18.235 20.0042 18.235 20.0044L18.235 23.261V23.8242H18.7981H21.5677Z" stroke="white" stroke-opacity="0.8" stroke-width="1.12631"/>
</svg>
