<svg width="27" height="27" viewBox="0 0 27 27" fill="none" xmlns="http://www.w3.org/2000/svg">
<path d="M10.8758 1.85857L10.8762 1.85822C12.2928 0.700996 14.5581 0.708343 15.9945 1.87228C15.9946 1.87239 15.9948 1.8725 15.9949 1.87261L24.3821 8.69737C24.3827 8.69789 24.3833 8.69841 24.3839 8.69892C24.8806 9.11151 25.3074 9.75403 25.582 10.4851C25.8564 11.2155 25.9608 11.9859 25.8636 12.6333L24.2505 22.4521C24.2504 22.4527 24.2503 22.4532 24.2502 22.4537C23.9223 24.3691 22.0988 25.9324 20.2188 25.9324H6.63784C4.73091 25.9324 2.94718 24.4069 2.61938 22.4674C2.61931 22.467 2.61925 22.4666 2.61919 22.4662L1.00524 12.6425L1.00503 12.6413C0.896342 11.989 0.994476 11.2169 1.26833 10.4864C1.54227 9.75573 1.97437 9.11377 2.48281 8.70114L2.48379 8.70035L10.8758 1.85857ZM13.4283 22.8233C14.2736 22.8233 14.9524 22.1191 14.9524 21.2828V17.3732C14.9524 16.5369 14.2736 15.8327 13.4283 15.8327C12.583 15.8327 11.9043 16.5369 11.9043 17.3732V21.2828C11.9043 22.1191 12.583 22.8233 13.4283 22.8233Z" stroke="white" stroke-opacity="0.8" stroke-width="1.12631"/>
</svg>
