<svg width="101" height="96" viewBox="0 0 101 96" fill="none" xmlns="http://www.w3.org/2000/svg">
<path d="M8.41667 96C8.41667 96 0 96 0 88C0 80 8.41667 56 50.5 56C92.5833 56 101 80 101 88C101 96 92.5833 96 92.5833 96H8.41667ZM50.5 48C57.1967 48 63.6192 45.4714 68.3545 40.9706C73.0897 36.4697 75.75 30.3652 75.75 24C75.75 17.6348 73.0897 11.5303 68.3545 7.02944C63.6192 2.52856 57.1967 0 50.5 0C43.8033 0 37.3808 2.52856 32.6456 7.02944C27.9103 11.5303 25.25 17.6348 25.25 24C25.25 30.3652 27.9103 36.4697 32.6456 40.9706C37.3808 45.4714 43.8033 48 50.5 48Z" fill="#2A2525"/>
</svg>
