<svg width="31" height="30" viewBox="0 0 31 30" fill="none" xmlns="http://www.w3.org/2000/svg">
<path d="M15.531 13.7899C15.425 13.7791 15.2979 13.7791 15.1813 13.7899C12.6591 13.7032 10.6562 11.5901 10.6562 8.98925C10.6562 6.33425 12.7545 4.17773 15.3614 4.17773C17.9578 4.17773 20.0667 6.33425 20.0667 8.98925C20.0561 11.5901 18.0532 13.7032 15.531 13.7899Z" stroke="white" stroke-opacity="0.7" stroke-width="1.2766" stroke-linecap="round" stroke-linejoin="round"/>
<path d="M10.2323 17.7901C7.66775 19.5456 7.66775 22.4065 10.2323 24.1512C13.1466 26.1452 17.9261 26.1452 20.8404 24.1512C23.4049 22.3957 23.4049 19.5348 20.8404 17.7901C17.9367 15.807 13.1572 15.807 10.2323 17.7901Z" stroke="white" stroke-opacity="0.7" stroke-width="1.2766" stroke-linecap="round" stroke-linejoin="round"/>
</svg>
