<svg width="29" height="30" viewBox="0 0 29 30" fill="none" xmlns="http://www.w3.org/2000/svg">
<g clip-path="url(#clip0_638_1577)">
<path d="M15.0284 18.912H13.7215C13.3295 18.912 13.0682 18.6418 13.0682 18.2365C13.0682 17.8313 13.3295 17.5611 13.7215 17.5611H15.6818C16.0738 17.5611 16.3352 17.2909 16.3352 16.8857C16.3352 16.4804 16.0738 16.2102 15.6818 16.2102H15.0284V15.5348C15.0284 15.1295 14.767 14.8594 14.375 14.8594C13.983 14.8594 13.7216 15.1296 13.7216 15.5348V16.2102C12.6108 16.2102 11.7614 17.0883 11.7614 18.2366C11.7614 19.3849 12.6108 20.263 13.7216 20.263H15.0284C15.4205 20.263 15.6818 20.5332 15.6818 20.9384C15.6818 21.3436 15.4204 21.6138 15.0284 21.6138H13.0682C12.6762 21.6138 12.4148 21.884 12.4148 22.2893C12.4148 22.6945 12.6762 22.9647 13.0682 22.9647H13.7216V23.6401C13.7216 24.0454 13.983 24.3156 14.375 24.3156C14.767 24.3156 15.0284 24.0454 15.0284 23.6401V22.9647C16.1392 22.9647 16.9886 22.0866 16.9886 20.9383C16.9886 19.79 16.1392 18.912 15.0284 18.912Z" fill="white" fill-opacity="0.8"/>
<path d="M23.8494 14.6576L19.4063 9.65928C19.1449 9.38907 18.7529 9.38907 18.4915 9.59171C18.2301 9.86192 18.2301 10.2671 18.4261 10.5374L22.8693 15.5357C24.5028 17.427 25.4176 19.8586 25.4176 22.3578V26.343C25.4176 27.4913 24.5682 28.3694 23.4574 28.3694H5.22729C4.11649 28.3694 3.26707 27.4913 3.26707 26.343V22.4254C3.26707 19.8586 4.18185 17.427 5.81537 15.6033L10.0625 10.8076H16.3352C16.7273 10.8076 16.9886 10.5374 16.9886 10.1321C16.9886 9.7269 16.7272 9.45669 16.3352 9.45669H9.80112C9.6051 9.45669 9.47443 9.52426 9.34376 9.65933L4.9006 14.6577C3.00574 16.8191 1.96024 19.5885 1.96024 22.4254V26.3431C1.96024 28.2343 3.39774 29.7203 5.22729 29.7203H23.5227C25.3523 29.7203 26.7898 28.2343 26.7898 26.3431V22.4254C26.7898 19.5885 25.7443 16.8191 23.8494 14.6576Z" fill="white" fill-opacity="0.8"/>
<path d="M20.7784 0.270208C20.6477 0.135075 20.4517 0 20.2557 0H8.49432C8.29829 0 8.10227 0.135075 7.9716 0.270208C7.84093 0.47285 7.77557 0.675492 7.90624 0.878133L9.21307 4.93085C9.27843 5.20106 9.53977 5.40364 9.80115 5.40364C9.86652 5.40364 9.93182 5.40364 9.99718 5.33608C10.3239 5.201 10.5199 4.86328 10.3892 4.458L9.4091 1.35092H19.3409L18.4915 4.05272H12.4148C12.0227 4.05272 11.7614 4.32293 11.7614 4.72815C11.7614 5.13338 12.0228 5.40358 12.4148 5.40358H18.9489C19.2103 5.40358 19.4716 5.20094 19.537 4.93079L20.8437 0.878075C20.9744 0.675433 20.9091 0.472792 20.7784 0.270208Z" fill="white" fill-opacity="0.8"/>
<path d="M18.9488 6.75391H9.80112C9.40907 6.75391 9.14774 7.02411 9.14774 7.42934C9.14774 7.83456 9.40912 8.10477 9.80112 8.10477H18.9488C19.3409 8.10477 19.6022 7.83456 19.6022 7.42934C19.6022 7.02411 19.3409 6.75391 18.9488 6.75391Z" fill="white" fill-opacity="0.8"/>
</g>
<defs>
<clipPath id="clip0_638_1577">
<rect width="28.75" height="29.72" fill="white"/>
</clipPath>
</defs>
</svg>
